<svg id="图层_1" data-name="图层 1" xmlns="http://www.w3.org/2000/svg" viewBox="0 0 1585.62 143.9">
    <defs>
        <style>.cls-1{fill:#ca1c4f;}</style>
    </defs>
    <path
        d="M1024.43,973.85v5.23q0,42,0,83.91c0,8.25.19,6.82-7.11,6.91-5.06.06-10.13-.21-15.17.08-4.11.24-5.27-1.33-5.25-5.33.12-36.82.07-73.65.07-110.47V930.42a30.07,30.07,0,0,1,3.64-.46c9.41,0,18.83-.16,28.23.11,1.66,0,4.12,1.46,4.75,2.89,6.44,14.63,12.54,29.41,18.8,44.12q7.5,17.64,15.19,35.2a37.3,37.3,0,0,0,2.71,4.26c2.56-5.07,4.87-9.55,7.12-14.07q11-22.05,21.92-44.13c4.38-8.81,8.73-17.65,13.22-26.41a3.82,3.82,0,0,1,2.73-1.88c7.56-.16,15.13-.09,23.55-.09-1.5,3.66-2.66,6.84-4.09,9.89q-11.17,23.92-22.47,47.8c-7.17,15.17-14.43,30.29-21.6,45.46-2.91,6.17-5.75,12.38-8.46,18.63-1.33,3.06-2.94,5.13-6.76,4.74a52.17,52.17,0,0,0-9.68,0c-4,.36-6.56-1.69-7.92-4.93-4.65-11-9-22.16-13.51-33.23s-9.28-22.32-13.9-33.49c-1.53-3.68-3-7.4-4.47-11.1Z"
        transform="translate(-207.19 -928.05)" />
    <path
        d="M1784,1055.3c-12.2-18.88-24.53-37.67-36.62-56.62-.74-1.17-.25-3.71.52-5.15a109.55,109.55,0,0,1,6-9.19q11.1-16.67,22.2-33.34c4.39-6.61,8.72-13.26,13.18-20-.8-.34-1.17-.63-1.54-.63-10.67-.05-21.35-.12-32,0a4.5,4.5,0,0,0-3.19,1.55c-2.16,3-4,6.19-6,9.28-6.12,9.41-12.21,18.84-18.44,28.17-1.23,1.84-2.53,2.64-4.27-.2-6.75-11.08-13.73-22-20.84-32.88-2-3-3.3-6.63-8.67-6.19-8.79.72-17.69.18-26.54.21-1.3,0-2.59.2-4.61.36,1.16,1.42,1.82,2.09,2.31,2.86q11.33,17.61,22.62,35.25c5.89,9.19,11.87,18.33,17.52,27.67.74,1.23.33,3.88-.54,5.25-5.23,8.25-10.75,16.32-16.17,24.46q-11.08,16.65-22.17,33.32c-2.12,3.21-4.08,6.53-6.56,10.51,11.92,0,22.72,0,33.51-.08a4.19,4.19,0,0,0,2.77-1.83c7.49-11.1,14.87-22.27,22.31-33.41,2.31-3.48,4.7-6.91,7.49-11,2.39,3.87,4.27,7,6.25,10.09,7.24,11.23,14.46,22.46,21.83,33.61.78,1.17,2.43,2.49,3.69,2.51,11.23.2,22.46.12,34.83.12C1789.56,1064.51,1786.91,1059.82,1784,1055.3Z"
        transform="translate(-207.19 -928.05)" />
    <path
        d="M751.39,935.05c-11.82,6.16-18.94,15.94-20.45,28.71-2.45,20.86,7.31,35,26.43,42.1,8.77,3.28,18,5.36,26.77,8.58a53.78,53.78,0,0,1,12.74,7.08c4.87,3.53,5.73,9,4,14.31-1.63,4.93-5.11,8.78-10.79,9a116.59,116.59,0,0,1-16.82-.6,34.67,34.67,0,0,1-12-3.22c-8.06-4.27-15.72-9.29-23.57-14-1.89-1.13-3.54-1.46-4.7,1.18-2.7,6.18-5.37,12.4-8.49,18.37-1.54,2.94-.61,4.35,1.74,5.72,4.48,2.61,9,5.12,13.43,7.85,11.31,7,24.09,9.58,36.87,11.33,13.2,1.81,26-1.36,37.84-7.38,6-3,11.18-7.41,14.32-13.4,5.5-10.49,7.49-21.5,3.68-33.21-2.53-7.77-6.6-14.27-13.55-18.7-13-8.32-28.11-11.83-42.17-17.75-3.37-1.42-7.14-3-9.45-5.59-5.42-6.12-5.84-12.86.31-16.94,7.78-5.18,16.54-4.24,24.66-1.69,9.26,2.92,18,7.4,27.07,11,1,.41,3.42-.14,3.78-.91,3.17-6.64,6-13.46,9-20.17,1.25-2.8.21-4.36-2.23-5.77a94.77,94.77,0,0,0-46.68-12.87C772,928,761.41,929.83,751.39,935.05Z"
        transform="translate(-207.19 -928.05)" />
    <path
        d="M596.61,1070.25h71.24c7.87,0,15.74.07,23.61-.08,1.26,0,3.57-1,3.59-1.64.24-7.8.16-15.61.16-23.74H690c-21.07,0-42.15-.07-63.23.06-3.73,0-5.12-.93-5.1-5,.18-26.14.09-52.29.1-78.43,0-5.58,0-5.6,5.59-5.6,20.52,0,41-.08,61.55.06,3.51,0,4.75-1.16,4.65-4.62-.17-5.19,0-10.4,0-15.6,0-5.41-.06-5.48-5.35-5.48-30.63,0-61.26.08-91.89-.1-4.21,0-5.46,1-5.45,5.32.18,43.16.11,86.31.11,129.46v5.35Z"
        transform="translate(-207.19 -928.05)" />
    <path
        d="M1213.6,955.85h5.33c20.52,0,41-.05,61.57.06,3.1,0,4.25-.86,4.13-4-.21-5.62-.32-11.27,0-16.87.25-4.07-1.34-4.87-5.06-4.85-30.65.13-61.29.07-91.93.07-5.64,0-5.66,0-5.66,5.57,0,43,0,86.05-.1,129.08,0,4.25,1.14,5.5,5.44,5.48,30.78-.17,61.56-.06,92.35-.11,8.06,0,7.06,1.08,7.13-7.21.05-6,0-12,0-18.21H1213.6Z"
        transform="translate(-207.19 -928.05)" />
    <path
        d="M398.53,1068.2c-7.83-12-15.62-24-23.57-35.83-8.91-13.31-18-26.49-26.95-39.8-6.2-9.26-12.17-18.67-18.33-28-6.7-10.1-13.5-20.13-20.24-30.2-1.86-2.79-4-4.55-7.79-4.3a176.38,176.38,0,0,1-18.54,0c-4.05-.17-5.22,1.25-5.21,5.32.14,43,.09,86,.1,129,0,.85-.31,1.89.08,2.49.72,1.11,1.82,2.76,2.8,2.78,8.66.22,17.33.13,26.59.13V980.85c1.15.37,1.89.37,2.11.71,5.42,8.26,10.72,16.59,16.16,24.83q19.29,29.27,38.75,58.44c1.37,2.05,1.82,5.24,5.68,5.15,9.4-.22,18.82-.07,28.56-.07C398.64,1069,398.73,1068.5,398.53,1068.2Z"
        transform="translate(-207.19 -928.05)" />
    <path
        d="M1438,1062.61c-9.64-14.31-19.41-28.52-29-42.85-9-13.45-17.73-27-26.68-40.52-9.94-15-20-29.83-30-44.79-1.87-2.81-3.75-4.64-7.6-4.35-5.73.43-11.52.11-17.28.11s-5.78,0-5.78,5.75q0,64.11,0,128.23a14.76,14.76,0,0,0,.17,3.77c.2.74,1.14,1.83,1.75,1.84,8.8.12,17.59.08,26.81.08v-30c0-9.84,0-19.68,0-29.52,0-9.59-.19-19.2.16-29a8.11,8.11,0,0,1,1.58.38q28.14,42.15,56.34,84.27c1.1,1.65,3.15,3.69,4.83,3.76,9.26.36,18.53.17,28.89.17C1440.54,1067,1439.4,1064.72,1438,1062.61Z"
        transform="translate(-207.19 -928.05)" />
    <path
        d="M212.23,930c-3.81-.09-5,1.12-5,5,.14,38.66.08,77.32.08,116,0,4.78.12,9.57,0,14.34-.11,3.4,1.14,4.84,4.66,4.73,6-.18,12.08,0,18.13,0h8.79v-140C229.62,930.05,220.92,930.19,212.23,930Z"
        transform="translate(-207.19 -928.05)" />
    <path
        d="M478.16,1069.62H508c-1.4-4.33-2.54-8.3-4-12.16-3.87-10.48-7.93-20.89-11.78-31.38-3.71-10.11-7.16-20.32-10.87-30.43-4.61-12.54-9.45-25-14-37.55-3-8-5.59-16.19-8.53-24.23a5.11,5.11,0,0,0-5.62-3.76c-7.15.33-14.32.08-21.48.12-1.35,0-2.71.23-4.49.4C444.37,977.4,461.27,1023.51,478.16,1069.62Z"
        transform="translate(-207.19 -928.05)" />
    <path
        d="M520.26,1046.33c14.22-38.46,28.43-76.92,42.9-116-10.52,0-20.17-.12-29.81.17-1.09,0-2.58,2.2-3.07,3.65-2.86,8.5-5.39,17.12-8.22,25.63-2.9,8.72-6.1,17.34-9,26.06-3,9-5.35,18.29-8.83,27.12-2.8,7.12-1.58,13.54,2.08,19.35,3.34,5.29,8,9.75,12.1,14.57Z"
        transform="translate(-207.19 -928.05)" />
    <path
        d="M1541.93,976.42c0-1.7-.69-4.14-1.91-5-6.54-4.41-14-4.84-21.22-2.61-3.11,1-7.83,1.3-7.8,6.93q.2,45.27,0,90.56c0,2.74.84,3.69,3.62,3.63,7.71-.15,15.44-.21,23.16,0,3.34.1,4.32-.93,4.29-4.27-.16-14.88-.07-29.76-.07-44.65S1542.08,991.3,1541.93,976.42Z"
        transform="translate(-207.19 -928.05)" />
    <path
        d="M925.42,1069.94c2.41,0,2.73-1.26,2.73-3.18q0-44.44,0-88.88c0-3.29-1.5-5.65-4.21-7.66-4.79-3.55-10.13-2.48-15.33-2.29-8.25.31-11.23,3.56-11.23,11.73q0,42.54,0,85.08v5.17C907.22,1069.91,916.32,1069.86,925.42,1069.94Z"
        transform="translate(-207.19 -928.05)" />
    <path
        d="M1582.32,929.94h-10.85c-32.15,0-64.3.06-96.45-.08-3.73,0-5,1.09-4.8,4.77.25,5.18,0,10.39.07,15.59,0,5.59.06,5.63,5.63,5.63h106.4Z"
        transform="translate(-207.19 -928.05)" />
    <path
        d="M862.87,955.85h99a24.54,24.54,0,0,0,4.62-.09c.87-.17,2.27-1.1,2.28-1.71.16-7.94.1-15.88.1-23.83H857.38v25.63Z"
        transform="translate(-207.19 -928.05)" />
    <path class="cls-1"
        d="M1442.79,1036.5a17.61,17.61,0,0,0,.33-2.39q0-49.93.06-99.87c0-3-1.33-3.94-4.06-3.92-7.16,0-14.32.11-21.48,0-2.85,0-3.56,1.15-3.55,3.78.06,19.67,0,39.33,0,59a17.15,17.15,0,0,0,.38,4.6,75.2,75.2,0,0,0,17.59,31.15c2.89,3.13,6.34,5.74,9.53,8.59Z"
        transform="translate(-207.19 -928.05)" />
    <path class="cls-1"
        d="M371.35,933.33c-.16,18.56-.34,37.11-.39,55.67,0,3.5-.16,7.21.89,10.46a78,78,0,0,0,19.37,31.69c2.19,2.19,4.74,4,7.81,6.57.13-2.51.25-3.76.26-5q.07-48.71.13-97.42a5.51,5.51,0,0,0-.14-2.49c-.52-.94-1.47-2.3-2.27-2.32-8.39-.16-16.78-.1-25.25-.1A27.22,27.22,0,0,0,371.35,933.33Z"
        transform="translate(-207.19 -928.05)" />
    <path
        d="M1131.58,980.84c-7.81,8.67-14.85,18.34-15.5,30.15-1,19.06-.44,38.2-.51,57.31a7.1,7.1,0,0,0,.5,1.61c6.9,0,13.89-.21,20.86.08,4,.17,5.31-1.12,5.31-5.21,0-29.5.21-59,.33-88.52,0-1.38-.17-2.76-.36-5.57C1138,974.65,1134.57,977.53,1131.58,980.84Z"
        transform="translate(-207.19 -928.05)" />
    <path
        d="M686.74,991.5c.06-2.82-1-3.65-3.68-3.61-8.57.11-17.15,0-25.72.05-14.85.16-11.54-2.09-13.44,12.4-.55,4.22-1.26,8.41-1.94,12.93h44.73C686.69,1005.77,686.58,998.63,686.74,991.5Z"
        transform="translate(-207.19 -928.05)" />
    <path
        d="M1277.47,991.52c0-2.75-.87-3.67-3.62-3.64-9.42.13-18.84,0-28.25,0-8.15,0-8.14,0-9.79,7.79-.17.83-.53,1.62-.63,2.45-.6,5-1.14,9.9-1.73,15.12h44C1277.42,1005.8,1277.32,998.65,1277.47,991.52Z"
        transform="translate(-207.19 -928.05)" />
    <path
        d="M1595.54,998.48c-.85,0-2.32,1.79-2.41,2.84-.31,3.47.11,7-.18,10.49-.31,3.78.85,5.17,4.86,5.09,12.88-.23,25.78-.08,38.67-.09,1.33,0,2.67-.14,4-.21V998.36C1625.21,998.36,1610.37,998.31,1595.54,998.48Z"
        transform="translate(-207.19 -928.05)" />
</svg>