<?xml version="1.0"?>
<svg width="1585.62" height="143.9" xmlns="http://www.w3.org/2000/svg"
    xmlns:svg="http://www.w3.org/2000/svg" data-name="图层 1">
    <defs>
        <style>.cls-1{fill:#ca1c4f;}</style>
    </defs>
    <g class="layer">
        <title>Layer 1</title>
        <path
            d="m817.24,45.8l0,5.23q0,42 0,83.91c0,8.25 0.19,6.82 -7.11,6.91c-5.06,0.06 -10.13,-0.21 -15.17,0.08c-4.11,0.24 -5.27,-1.33 -5.25,-5.33c0.12,-36.82 0.07,-73.65 0.07,-110.47l0,-23.76a30.07,30.07 0 0 1 3.64,-0.46c9.41,0 18.83,-0.16 28.23,0.11c1.66,0 4.12,1.46 4.75,2.89c6.44,14.63 12.54,29.41 18.8,44.12q7.5,17.64 15.19,35.2a37.3,37.3 0 0 0 2.71,4.26c2.56,-5.07 4.87,-9.55 7.12,-14.07q11,-22.05 21.92,-44.13c4.38,-8.81 8.73,-17.65 13.22,-26.41a3.82,3.82 0 0 1 2.73,-1.88c7.56,-0.16 15.13,-0.09 23.55,-0.09c-1.5,3.66 -2.66,6.84 -4.09,9.89q-11.17,23.92 -22.47,47.8c-7.17,15.17 -14.43,30.29 -21.6,45.46c-2.91,6.17 -5.75,12.38 -8.46,18.63c-1.33,3.06 -2.94,5.13 -6.76,4.74a52.17,52.17 0 0 0 -9.68,0c-4,0.36 -6.56,-1.69 -7.92,-4.93c-4.65,-11 -9,-22.16 -13.51,-33.23s-9.28,-22.32 -13.9,-33.49c-1.53,-3.68 -3,-7.4 -4.47,-11.1l-1.54,0.12z"
            fill="#ffffff" id="svg_1" />
        <path
            d="m1576.81,127.25c-12.2,-18.88 -24.53,-37.67 -36.62,-56.62c-0.74,-1.17 -0.25,-3.71 0.52,-5.15a109.55,109.55 0 0 1 6,-9.19q11.1,-16.67 22.2,-33.34c4.39,-6.61 8.72,-13.26 13.18,-20c-0.8,-0.34 -1.17,-0.63 -1.54,-0.63c-10.67,-0.05 -21.35,-0.12 -32,0a4.5,4.5 0 0 0 -3.19,1.55c-2.16,3 -4,6.19 -6,9.28c-6.12,9.41 -12.21,18.84 -18.44,28.17c-1.23,1.84 -2.53,2.64 -4.27,-0.2c-6.75,-11.08 -13.73,-22 -20.84,-32.88c-2,-3 -3.3,-6.63 -8.67,-6.19c-8.79,0.72 -17.69,0.18 -26.54,0.21c-1.3,0 -2.59,0.2 -4.61,0.36c1.16,1.42 1.82,2.09 2.31,2.86q11.33,17.61 22.62,35.25c5.89,9.19 11.87,18.33 17.52,27.67c0.74,1.23 0.33,3.88 -0.54,5.25c-5.23,8.25 -10.75,16.32 -16.17,24.46q-11.08,16.65 -22.17,33.32c-2.12,3.21 -4.08,6.53 -6.56,10.51c11.92,0 22.72,0 33.51,-0.08a4.19,4.19 0 0 0 2.77,-1.83c7.49,-11.1 14.87,-22.27 22.31,-33.41c2.31,-3.48 4.7,-6.91 7.49,-11c2.39,3.87 4.27,7 6.25,10.09c7.24,11.23 14.46,22.46 21.83,33.61c0.78,1.17 2.43,2.49 3.69,2.51c11.23,0.2 22.46,0.12 34.83,0.12c-3.31,-5.49 -5.96,-10.18 -8.87,-14.7z"
            fill="#ffffff" id="svg_2" />
        <path
            d="m544.2,7c-11.82,6.16 -18.94,15.94 -20.45,28.71c-2.45,20.86 7.31,35 26.43,42.1c8.77,3.28 18,5.36 26.77,8.58a53.78,53.78 0 0 1 12.74,7.08c4.87,3.53 5.73,9 4,14.31c-1.63,4.93 -5.11,8.78 -10.79,9a116.59,116.59 0 0 1 -16.82,-0.6a34.67,34.67 0 0 1 -12,-3.22c-8.06,-4.27 -15.72,-9.29 -23.57,-14c-1.89,-1.13 -3.54,-1.46 -4.7,1.18c-2.7,6.18 -5.37,12.4 -8.49,18.37c-1.54,2.94 -0.61,4.35 1.74,5.72c4.48,2.61 9,5.12 13.43,7.85c11.31,7 24.09,9.58 36.87,11.33c13.2,1.81 26,-1.36 37.84,-7.38c6,-3 11.18,-7.41 14.32,-13.4c5.5,-10.49 7.49,-21.5 3.68,-33.21c-2.53,-7.77 -6.6,-14.27 -13.55,-18.7c-13,-8.32 -28.11,-11.83 -42.17,-17.75c-3.37,-1.42 -7.14,-3 -9.45,-5.59c-5.42,-6.12 -5.84,-12.86 0.31,-16.94c7.78,-5.18 16.54,-4.24 24.66,-1.69c9.26,2.92 18,7.4 27.07,11c1,0.41 3.42,-0.14 3.78,-0.91c3.17,-6.64 6,-13.46 9,-20.17c1.25,-2.8 0.21,-4.36 -2.23,-5.77a94.77,94.77 0 0 0 -46.68,-12.87c-11.13,-0.08 -21.72,1.75 -31.74,6.97z"
            fill="#ffffff" id="svg_3" />
        <path
            d="m389.42,142.2l71.24,0c7.87,0 15.74,0.07 23.61,-0.08c1.26,0 3.57,-1 3.59,-1.64c0.24,-7.8 0.16,-15.61 0.16,-23.74l-5.21,0c-21.07,0 -42.15,-0.07 -63.23,0.06c-3.73,0 -5.12,-0.93 -5.1,-5c0.18,-26.14 0.09,-52.29 0.1,-78.43c0,-5.58 0,-5.6 5.59,-5.6c20.52,0 41,-0.08 61.55,0.06c3.51,0 4.75,-1.16 4.65,-4.62c-0.17,-5.19 0,-10.4 0,-15.6c0,-5.41 -0.06,-5.48 -5.35,-5.48c-30.63,0 -61.26,0.08 -91.89,-0.1c-4.21,0 -5.46,1 -5.45,5.32c0.18,43.16 0.11,86.31 0.11,129.46l0,5.35l5.63,0.04z"
            fill="#ffffff" id="svg_4" />
        <path
            d="m1006.41,27.8l5.33,0c20.52,0 41,-0.05 61.57,0.06c3.1,0 4.25,-0.86 4.13,-4c-0.21,-5.62 -0.32,-11.27 0,-16.87c0.25,-4.07 -1.34,-4.87 -5.06,-4.85c-30.65,0.13 -61.29,0.07 -91.93,0.07c-5.64,0 -5.66,0 -5.66,5.57c0,43 0,86.05 -0.1,129.08c0,4.25 1.14,5.5 5.44,5.48c30.78,-0.17 61.56,-0.06 92.35,-0.11c8.06,0 7.06,1.08 7.13,-7.21c0.05,-6 0,-12 0,-18.21l-73.2,0l0,-89.01z"
            fill="#ffffff" id="svg_5" />
        <path
            d="m191.34,140.15c-7.83,-12 -15.62,-24 -23.57,-35.83c-8.91,-13.31 -18,-26.49 -26.95,-39.8c-6.2,-9.26 -12.17,-18.67 -18.33,-28c-6.7,-10.1 -13.5,-20.13 -20.24,-30.2c-1.86,-2.79 -4,-4.55 -7.79,-4.3a176.38,176.38 0 0 1 -18.54,0c-4.05,-0.17 -5.22,1.25 -5.21,5.32c0.14,43 0.09,86 0.1,129c0,0.85 -0.31,1.89 0.08,2.49c0.72,1.11 1.82,2.76 2.8,2.78c8.66,0.22 17.33,0.13 26.59,0.13l0,-88.94c1.15,0.37 1.89,0.37 2.11,0.71c5.42,8.26 10.72,16.59 16.16,24.83q19.29,29.27 38.75,58.44c1.37,2.05 1.82,5.24 5.68,5.15c9.4,-0.22 18.82,-0.07 28.56,-0.07c-0.09,-0.91 0,-1.41 -0.2,-1.71z"
            fill="#ffffff" id="svg_6" />
        <path
            d="m1230.81,134.56c-9.64,-14.31 -19.41,-28.52 -29,-42.85c-9,-13.45 -17.73,-27 -26.68,-40.52c-9.94,-15 -20,-29.83 -30,-44.79c-1.87,-2.81 -3.75,-4.64 -7.6,-4.35c-5.73,0.43 -11.52,0.11 -17.28,0.11s-5.78,0 -5.78,5.75q0,64.11 0,128.23a14.76,14.76 0 0 0 0.17,3.77c0.2,0.74 1.14,1.83 1.75,1.84c8.8,0.12 17.59,0.08 26.81,0.08l0,-30c0,-9.84 0,-19.68 0,-29.52c0,-9.59 -0.19,-19.2 0.16,-29a8.11,8.11 0 0 1 1.58,0.38q28.14,42.15 56.34,84.27c1.1,1.65 3.15,3.69 4.83,3.76c9.26,0.36 18.53,0.17 28.89,0.17c-1.65,-2.94 -2.79,-5.22 -4.19,-7.33z"
            fill="#ffffff" id="svg_7" />
        <path
            d="m5.04,1.95c-3.81,-0.09 -5,1.12 -5,5c0.14,38.66 0.08,77.32 0.08,116c0,4.78 0.12,9.57 0,14.34c-0.11,3.4 1.14,4.84 4.66,4.73c6,-0.18 12.08,0 18.13,0l8.79,0l0,-140c-9.27,-0.02 -17.97,0.12 -26.66,-0.07z"
            fill="#ffffff" id="svg_8" />
        <path
            d="m270.97,141.57l29.84,0c-1.4,-4.33 -2.54,-8.3 -4,-12.16c-3.87,-10.48 -7.93,-20.89 -11.78,-31.38c-3.71,-10.11 -7.16,-20.32 -10.87,-30.43c-4.61,-12.54 -9.45,-25 -14,-37.55c-3,-8 -5.59,-16.19 -8.53,-24.23a5.11,5.11 0 0 0 -5.62,-3.76c-7.15,0.33 -14.32,0.08 -21.48,0.12c-1.35,0 -2.71,0.23 -4.49,0.4c17.14,46.77 34.04,92.88 50.93,138.99z"
            fill="#ffffff" id="svg_9" />
        <path
            d="m313.07,118.28c14.22,-38.46 28.43,-76.92 42.9,-116c-10.52,0 -20.17,-0.12 -29.81,0.17c-1.09,0 -2.58,2.2 -3.07,3.65c-2.86,8.5 -5.39,17.12 -8.22,25.63c-2.9,8.72 -6.1,17.34 -9,26.06c-3,9 -5.35,18.29 -8.83,27.12c-2.8,7.12 -1.58,13.54 2.08,19.35c3.34,5.29 8,9.75 12.1,14.57l1.85,-0.55z"
            fill="#ffffff" id="svg_10" />
        <path
            d="m1334.74,48.37c0,-1.7 -0.69,-4.14 -1.91,-5c-6.54,-4.41 -14,-4.84 -21.22,-2.61c-3.11,1 -7.83,1.3 -7.8,6.93q0.2,45.27 0,90.56c0,2.74 0.84,3.69 3.62,3.63c7.71,-0.15 15.44,-0.21 23.16,0c3.34,0.1 4.32,-0.93 4.29,-4.27c-0.16,-14.88 -0.07,-29.76 -0.07,-44.65s0.08,-29.71 -0.07,-44.59z"
            fill="#ffffff" id="svg_11" />
        <path
            d="m718.23,141.89c2.41,0 2.73,-1.26 2.73,-3.18q0,-44.44 0,-88.88c0,-3.29 -1.5,-5.65 -4.21,-7.66c-4.79,-3.55 -10.13,-2.48 -15.33,-2.29c-8.25,0.31 -11.23,3.56 -11.23,11.73q0,42.54 0,85.08l0,5.17c9.84,0 18.94,-0.05 28.04,0.03z"
            fill="#ffffff" id="svg_12" />
        <path
            d="m1375.13,1.89l-10.85,0c-32.15,0 -64.3,0.06 -96.45,-0.08c-3.73,0 -5,1.09 -4.8,4.77c0.25,5.18 0,10.39 0.07,15.59c0,5.59 0.06,5.63 5.63,5.63l106.4,0l0,-25.91z"
            fill="#ffffff" id="svg_13" />
        <path
            d="m655.68,27.8l99,0a24.54,24.54 0 0 0 4.62,-0.09c0.87,-0.17 2.27,-1.1 2.28,-1.71c0.16,-7.94 0.1,-15.88 0.1,-23.83l-111.49,0l0,25.63l5.49,0z"
            fill="#ffffff" id="svg_14" />
        <path class="cls-1"
            d="m1442.79,1036.5a17.61,17.61 0 0 0 0.33,-2.39q0,-49.93 0.06,-99.87c0,-3 -1.33,-3.94 -4.06,-3.92c-7.16,0 -14.32,0.11 -21.48,0c-2.85,0 -3.56,1.15 -3.55,3.78c0.06,19.67 0,39.33 0,59a17.15,17.15 0 0 0 0.38,4.6a75.2,75.2 0 0 0 17.59,31.15c2.89,3.13 6.34,5.74 9.53,8.59l1.2,-0.94z"
            id="svg_15" transform="translate(-207.19 -928.05)" />
        <path class="cls-1"
            d="m371.35,933.33c-0.16,18.56 -0.34,37.11 -0.39,55.67c0,3.5 -0.16,7.21 0.89,10.46a78,78 0 0 0 19.37,31.69c2.19,2.19 4.74,4 7.81,6.57c0.13,-2.51 0.25,-3.76 0.26,-5q0.07,-48.71 0.13,-97.42a5.51,5.51 0 0 0 -0.14,-2.49c-0.52,-0.94 -1.47,-2.3 -2.27,-2.32c-8.39,-0.16 -16.78,-0.1 -25.25,-0.1a27.22,27.22 0 0 0 -0.41,2.94z"
            id="svg_16" transform="translate(-207.19 -928.05)" />
        <path
            d="m924.39,52.79c-7.81,8.67 -14.85,18.34 -15.5,30.15c-1,19.06 -0.44,38.2 -0.51,57.31a7.1,7.1 0 0 0 0.5,1.61c6.9,0 13.89,-0.21 20.86,0.08c4,0.17 5.31,-1.12 5.31,-5.21c0,-29.5 0.21,-59 0.33,-88.52c0,-1.38 -0.17,-2.76 -0.36,-5.57c-4.21,3.96 -7.64,6.84 -10.63,10.15z"
            fill="#ffffff" id="svg_17" />
        <path
            d="m479.55,63.45c0.06,-2.82 -1,-3.65 -3.68,-3.61c-8.57,0.11 -17.15,0 -25.72,0.05c-14.85,0.16 -11.54,-2.09 -13.44,12.4c-0.55,4.22 -1.26,8.41 -1.94,12.93l44.73,0c0,-7.5 -0.11,-14.64 0.05,-21.77z"
            fill="#ffffff" id="svg_18" />
        <path
            d="m1070.28,63.47c0,-2.75 -0.87,-3.67 -3.62,-3.64c-9.42,0.13 -18.84,0 -28.25,0c-8.15,0 -8.14,0 -9.79,7.79c-0.17,0.83 -0.53,1.62 -0.63,2.45c-0.6,5 -1.14,9.9 -1.73,15.12l44,0c-0.03,-7.44 -0.13,-14.59 0.02,-21.72z"
            fill="#ffffff" id="svg_19" />
        <path
            d="m1388.35,70.43c-0.85,0 -2.32,1.79 -2.41,2.84c-0.31,3.47 0.11,7 -0.18,10.49c-0.31,3.78 0.85,5.17 4.86,5.09c12.88,-0.23 25.78,-0.08 38.67,-0.09c1.33,0 2.67,-0.14 4,-0.21l0,-18.24c-15.27,0 -30.11,-0.05 -44.94,0.12z"
            fill="#ffffff" id="svg_20" />
    </g>
</svg>